<svg width="40" height="40" viewBox="0 0 40 40" fill="none" xmlns="http://www.w3.org/2000/svg">
<g id="emojione:flag-for-canada">
<path id="Vector" d="M30 4.125C27.125 2.3125 23.6875 1.25 20 1.25C16.3125 1.25 12.875 2.3125 10 4.125V35.8125C12.875 37.625 16.3125 38.6875 20 38.6875C23.6875 38.6875 27.125 37.625 30 35.8125V4.125Z" fill="#F9F9F9"/>
<path id="Vector_2" d="M30 4.125V35.8125C35.25 32.5625 38.75 26.5625 38.75 19.9375C38.75 13.3125 35.25 7.4375 30 4.125ZM10 4.125C4.75 7.4375 1.25 13.4375 1.25 20C1.25 26.5625 4.75 32.5625 10 35.875V4.125ZM26.8125 19.75C26.5625 19.625 26.5 19.375 26.5625 19.25L27.1875 17L25 17.4375C24.9375 17.4375 24.6875 17.4375 24.625 17L24.4375 16.25L22.9375 18C22.9375 18 21.9375 19.0625 22.25 17.4375L22.875 14L21.6875 14.625C21.625 14.625 21.375 14.6875 21.0625 14.0625L20 11.875L18.875 13.9375C18.5625 14.5625 18.3125 14.5 18.25 14.5L17.0625 13.875L17.6875 17.3125C18 18.9375 17 17.875 17 17.875L15.5 16.125L15.3125 16.875C15.1875 17.3125 15 17.3125 14.9375 17.3125L12.75 16.875L13.375 19.125C13.375 19.3125 13.375 19.5 13.125 19.625L12.5 20C12.5 20 15 22 15.8125 22.6875C16 22.8125 16.375 23.1875 16.25 23.625L15.9375 24.5L19.375 24C19.5625 24 19.9375 24 19.875 24.5625L19.6875 28.125H20.3125L20.125 24.5625C20.125 24 20.5 24 20.625 24L24.0625 24.5L23.75 23.625C23.625 23.1875 24 22.8125 24.1875 22.6875C25 22 27.5 20 27.5 20L26.8125 19.75Z" fill="#ED4C5C"/>
</g>
</svg>
