<svg width="40" height="40" viewBox="0 0 40 40" fill="none" xmlns="http://www.w3.org/2000/svg">
<g id="emojione:flag-for-nigeria">
<path id="Vector" d="M1.25 20C1.25 28.1875 6.5 35.125 13.75 37.6875V2.3125C6.5 4.875 1.25 11.8125 1.25 20ZM38.75 20C38.75 11.8125 33.5625 4.875 26.25 2.3125V37.6875C33.5625 35.125 38.75 28.1875 38.75 20Z" fill="#83BF4F"/>
<path id="Vector_2" d="M13.75 37.6875C15.6875 38.375 17.8125 38.75 20 38.75C22.1875 38.75 24.3125 38.375 26.25 37.6875V2.3125C24.3125 1.625 22.1875 1.25 20 1.25C17.8125 1.25 15.6875 1.625 13.75 2.3125V37.6875Z" fill="#F9F9F9"/>
</g>
</svg>
