<svg width="40" height="40" viewBox="0 0 40 40" fill="none" xmlns="http://www.w3.org/2000/svg">
<g id="Group">
<g id="Group_2">
<path id="Vector" d="M3.65098 29.3972L3.60776 29.318C1.90047 26.4365 1 23.1371 1 19.773C1 9.42119 9.42119 1 19.7658 1C24.5059 1 29.0298 2.77212 32.5164 5.985L32.5885 6.05704L32.502 6.10746C32.4732 6.12187 32.4372 6.14348 32.4084 6.16509L30.6435 7.74271C29.9591 8.35503 29.2819 8.96015 28.5976 9.57247L27.1784 10.8475C25.9466 11.9425 24.7076 13.0447 23.4757 14.1396C22.2223 15.249 20.7527 15.6452 19.1246 15.3211C18.8149 15.2634 18.5051 15.1986 18.1954 15.1338L17.9576 15.0905C17.2733 14.9609 16.5889 14.824 15.9046 14.6943C15.8613 14.6943 15.8109 14.6943 15.7677 14.6943C15.53 14.6943 15.2778 14.7304 14.9753 14.8096C14.752 14.8744 14.5214 14.9537 14.2909 15.0329C14.2693 15.0401 14.2549 15.0473 14.2333 15.0617L14.2045 15.0761C14.2045 15.0761 14.1829 15.0905 14.1757 15.0977C14.1685 15.105 14.1685 15.105 14.1541 15.1122C14.1396 15.141 14.118 15.1698 14.0892 15.1842C14.0604 15.2778 14.0028 15.3427 13.9091 15.3643L13.0735 16.1135C12.5404 16.5961 12.0001 17.0716 11.4599 17.5542C8.4775 20.2196 5.49514 22.885 2.51279 25.5504C2.51279 25.5648 2.51279 25.5792 2.51279 25.5936C3.20435 25.7305 3.89591 25.8674 4.58027 26.0042C5.53836 26.1915 6.48926 26.3788 7.44016 26.5661L7.87238 26.6526L7.44016 26.7102C7.31769 26.7246 7.19523 26.7534 7.04395 26.7966C6.82784 26.8615 6.61172 26.9263 6.40282 27.0056L6.35239 27.02C6.34519 27.02 6.32357 27.0344 6.30917 27.0416L6.24433 27.0848C6.23713 27.092 6.22993 27.092 6.22272 27.0992C6.20831 27.128 6.1795 27.1568 6.15068 27.1712C6.12907 27.2289 6.08585 27.3225 5.97059 27.3513C5.48794 27.7764 5.01249 28.2014 4.52984 28.6336L3.65098 29.3972ZM19.7658 1.14407C9.50043 1.14407 1.13687 9.50043 1.13687 19.773C1.13687 23.0867 2.01573 26.3284 3.687 29.1739L4.42178 28.5183C4.90444 28.0861 5.38709 27.6539 5.86974 27.2217L5.89135 27.2073L5.91296 27.2001C5.95618 27.1929 5.9922 27.1712 6.00661 27.0848L6.06424 27.0992L6.07865 27.0056L6.10026 26.9911C6.11467 26.9767 6.12907 26.9623 6.15068 26.9551L6.22993 26.9119C6.25154 26.9047 6.27315 26.8903 6.28756 26.8831L6.34519 26.8687C6.55409 26.7966 6.77741 26.7174 6.99352 26.6598C7.01513 26.6526 7.03675 26.6526 7.05115 26.6454C6.22272 26.4797 5.38709 26.314 4.55145 26.1483C3.84548 26.0114 3.13951 25.8674 2.43355 25.7305L2.38312 25.7233L2.37592 25.6729C2.36871 25.6296 2.36151 25.5792 2.35431 25.5288V25.4928L2.38312 25.4712C5.37268 22.7986 8.36944 20.1188 11.359 17.4462C11.8993 16.9707 12.4396 16.4881 12.9726 16.0054L13.8443 15.2274L13.8659 15.2202C13.9163 15.213 13.9524 15.1914 13.9668 15.105L14.0316 15.1194L14.046 15.0257L14.0676 15.0113C14.0748 14.9969 14.0964 14.9897 14.1108 14.9825C14.1252 14.9753 14.1324 14.9681 14.1396 14.9609L14.1829 14.9393C14.2117 14.9249 14.2333 14.9105 14.2621 14.9032C14.4998 14.8168 14.7232 14.7448 14.9609 14.6727C15.3427 14.5719 15.638 14.5359 15.9478 14.5575C16.6394 14.6871 17.3237 14.824 18.0081 14.9537L18.2458 15.0041C18.5628 15.0617 18.8653 15.1266 19.1823 15.1914C20.7671 15.5084 22.1862 15.1194 23.4109 14.046C24.6499 12.951 25.8818 11.8489 27.1136 10.7539L28.5328 9.48602C29.2171 8.8737 29.8943 8.26139 30.5786 7.65627L32.3507 6.06424C32.3651 6.05704 32.3724 6.05704 32.3796 6.04983C28.9001 2.88018 24.4338 1.14407 19.7658 1.14407Z" fill="#D31E15" stroke="white" stroke-miterlimit="10"/>
</g>
<g id="Group_3">
<path id="Vector_2" d="M19.7657 38.5458C15.4507 38.5458 11.2293 37.0402 7.89394 34.31L7.8291 34.2523L7.88673 34.1947C9.52919 32.7251 11.0276 31.4069 12.4755 30.1534C13.2968 29.4402 14.2765 29.08 15.393 29.08C15.602 29.08 15.8109 29.0873 16.027 29.1161C16.6033 29.1809 17.2732 29.2673 17.9 29.4835C18.5843 29.6059 19.2831 29.7284 19.9818 29.8436C20.1403 29.786 20.2916 29.7932 20.4213 29.8004C20.4573 29.8004 20.4933 29.8004 20.5365 29.8004C21.3145 29.6203 21.898 29.08 22.4599 28.5542C22.5824 28.4389 22.7049 28.3309 22.8273 28.2156C26.3355 25.0892 29.7789 22.0132 32.9774 19.1461C32.999 19.1317 33.0134 19.1173 33.035 19.0956C33.0999 19.0452 33.1647 18.9876 33.2007 18.9228L32.6965 18.8291C31.2845 18.5482 29.8654 18.2672 28.4535 17.9863C28.4102 17.9791 28.367 17.9719 28.331 17.9647L28.2734 17.9502L28.2878 17.8062C28.3598 17.8062 28.4246 17.8062 28.4895 17.8062C29.2747 17.6261 29.851 17.0858 30.4129 16.5671C30.5353 16.4519 30.6578 16.3366 30.7875 16.2213L31.2701 15.7891C32.9774 14.2619 34.6847 12.7419 36.392 11.2147L36.4568 11.1499L36.5 11.2363C37.8544 13.8945 38.5459 16.7616 38.5459 19.7584C38.5459 30.1246 30.1175 38.5458 19.7657 38.5458ZM8.04521 34.2523C11.3517 36.9321 15.5083 38.4017 19.7657 38.4017C30.0383 38.4017 38.3946 30.0454 38.3946 19.7728C38.3946 16.8265 37.7319 14.017 36.4136 11.402C34.7351 12.9076 33.0422 14.4132 31.3638 15.9188L30.8811 16.351C30.7587 16.4591 30.6362 16.5743 30.5065 16.6896C29.9879 17.1794 29.4476 17.6765 28.7344 17.907C30.0599 18.1736 31.3998 18.4401 32.7325 18.6994L33.4096 18.8291L33.3808 18.9083C33.3376 19.0524 33.2295 19.1389 33.1359 19.2181C33.1143 19.2325 33.0999 19.2469 33.0783 19.2685C29.8798 22.1284 26.4364 25.2116 22.9282 28.3381C22.8057 28.4461 22.6832 28.5614 22.5608 28.6766C21.9845 29.2169 21.3938 29.7644 20.5509 29.9589C20.4933 29.9589 20.4573 29.9589 20.4213 29.9589C20.2916 29.9589 20.1547 29.9517 20.0034 30.0021L19.989 30.0093H19.9746C19.2687 29.8869 18.5699 29.7644 17.8639 29.6419C17.2372 29.433 16.6033 29.3466 16.0126 29.2818C14.6799 29.1233 13.5129 29.4691 12.5692 30.2831C11.1428 31.5005 9.66606 32.8116 8.04521 34.2523Z" fill="#D31E15" stroke="white" stroke-miterlimit="10"/>
</g>
<g id="Group_4">
<path id="Vector_3" fill-rule="evenodd" clip-rule="evenodd" d="M33.3087 18.887C33.2583 19.0311 33.1358 19.1175 33.0278 19.2111C29.6492 22.2367 26.2707 25.2623 22.8777 28.2807C22.1717 28.9074 21.5306 29.6566 20.5437 29.8799C20.3564 29.8799 20.1691 29.8583 19.989 29.9231C19.2902 29.8007 18.5843 29.6782 17.8783 29.5557C17.2804 29.354 16.6537 29.2676 16.0197 29.1956C14.7086 29.0371 13.4984 29.3612 12.5259 30.2185C10.9843 31.5584 9.4571 32.9055 7.93711 34.2598C6.24423 32.8695 4.78907 31.191 3.66528 29.2892C4.41447 28.6193 5.16366 27.9421 5.92006 27.2794C6.01371 27.2649 6.05693 27.1929 6.07854 27.1065H6.06413C6.10736 27.1065 6.12897 27.0921 6.14337 27.056C6.16499 27.0344 6.1938 27.02 6.21541 27.0056C6.25143 26.984 6.28025 26.9696 6.31626 26.9552C6.54678 26.8759 6.77731 26.7967 7.00783 26.7319C7.31038 26.6454 7.63455 26.595 7.96593 26.6166C8.65028 26.7463 9.33464 26.8831 10.019 27.0056C10.408 27.0849 10.797 27.1569 11.186 27.2433C12.8068 27.5675 14.2404 27.1713 15.4722 26.0763C17.1867 24.5635 18.8868 23.0363 20.5941 21.5091C21.8692 20.371 23.137 19.2328 24.4049 18.0946C24.7147 17.8929 25.0316 17.7416 25.3702 17.6479C25.7088 17.5471 26.069 17.5111 26.4436 17.5399C27.1135 17.6768 27.7763 17.8064 28.4534 17.9361C30.0815 18.253 31.6951 18.5628 33.3087 18.887Z" fill="#D31E15" stroke="white" stroke-miterlimit="10"/>
</g>
<g id="Group_5">
<path id="Vector_4" fill-rule="evenodd" clip-rule="evenodd" d="M36.4353 11.28C34.5696 12.9513 32.6966 14.6225 30.8308 16.2866C30.1176 16.9133 29.4837 17.6625 28.4896 17.8858C28.4247 17.8858 28.3599 17.8858 28.2879 17.8858C27.6756 17.7634 27.0704 17.6481 26.4581 17.5256C26.2204 17.5112 25.9971 17.5184 25.781 17.5545C25.1903 17.3672 24.5779 17.2735 23.9656 17.2087C22.6545 17.0502 21.4443 17.3744 20.4646 18.2244C18.8726 19.6075 17.3021 21.0051 15.7245 22.4026C14.4495 23.5408 13.1816 24.6862 11.9065 25.8316C11.3086 26.3718 10.6963 26.8473 9.9111 26.977C9.26996 26.8545 8.61442 26.7248 7.96608 26.6024C7.77878 26.588 7.59149 26.6024 7.41139 26.6312C5.75453 26.307 4.09046 25.9684 2.4336 25.6443C2.42639 25.601 2.42639 25.5578 2.41919 25.5074C5.41595 22.8348 8.40551 20.1622 11.4023 17.4896C12.2235 16.7548 13.0447 16.0201 13.866 15.2853C13.9668 15.2709 14.0028 15.206 14.0244 15.1124H14.01C14.0533 15.1196 14.0749 15.098 14.0893 15.0547C14.1181 15.0403 14.1469 15.0259 14.1685 15.0043C14.2045 14.9899 14.2333 14.9683 14.2694 14.9539C14.4999 14.8747 14.7304 14.7954 14.9609 14.7306C15.2779 14.6441 15.5877 14.5937 15.919 14.6153C16.6034 14.745 17.2877 14.8819 17.9649 15.0115C18.3539 15.0836 18.7429 15.1628 19.1319 15.242C20.7527 15.5662 22.1863 15.17 23.4181 14.075C25.1326 12.5622 26.8399 11.0351 28.54 9.51506C29.8151 8.36966 31.0829 7.23147 32.358 6.09327C32.3868 6.07166 32.4156 6.05005 32.4588 6.03564C34.0797 7.53403 35.4268 9.30615 36.4353 11.28Z" fill="#D31E15" stroke="white" stroke-miterlimit="10"/>
</g>
<g id="Group_6">
<path id="Vector_5" fill-rule="evenodd" clip-rule="evenodd" d="M7.97339 26.6093C8.62173 26.7318 9.27007 26.8614 9.9184 26.9839C9.79594 27.0055 9.65907 27.0127 9.5222 27.0199C8.9459 26.9623 8.384 26.8182 7.81491 26.7102C7.67804 26.6814 7.54837 26.6597 7.4187 26.6309C7.5988 26.6093 7.78609 26.5949 7.97339 26.6093Z" fill="#D31E15" stroke="white" stroke-miterlimit="10"/>
</g>
<g id="Group_7">
<path id="Vector_6" fill-rule="evenodd" clip-rule="evenodd" d="M26.458 17.5253C27.0632 17.6478 27.6755 17.7703 28.2878 17.8855C28.1725 17.8855 28.0501 17.8855 27.942 17.9287C27.236 17.8063 26.5373 17.6838 25.8313 17.5613C25.8097 17.5541 25.8025 17.5541 25.7881 17.5469C25.997 17.5253 26.2203 17.5109 26.458 17.5253Z" fill="#D31E15" stroke="white" stroke-miterlimit="10"/>
</g>
</g>
</svg>
