<svg width="60" height="60" viewBox="0 0 60 60" fill="none" xmlns="http://www.w3.org/2000/svg">
<g id="Group">
<g id="Group_2">
<path id="Vector" d="M4.90853 44.6621L4.84208 44.5402C2.21703 40.1098 0.83252 35.0369 0.83252 29.8644C0.83252 13.948 13.7805 1 29.6858 1C36.9739 1 43.9297 3.72473 49.2906 8.66468L49.4013 8.77544L49.2684 8.85297C49.2241 8.87512 49.1687 8.90835 49.1244 8.94158L46.4108 11.3672C45.3585 12.3087 44.3174 13.2391 43.2651 14.1806L41.0831 16.1411C39.1891 17.8246 37.284 19.5193 35.39 21.2028C33.4628 22.9086 31.2032 23.5178 28.7 23.0193C28.2238 22.9307 27.7475 22.831 27.2712 22.7314L26.9057 22.6649C25.8535 22.4655 24.8012 22.2551 23.749 22.0557C23.6826 22.0557 23.605 22.0557 23.5386 22.0557C23.1731 22.0557 22.7854 22.1111 22.3202 22.2329C21.9768 22.3326 21.6224 22.4544 21.268 22.5763C21.2347 22.5874 21.2126 22.5984 21.1794 22.6206L21.1351 22.6427C21.1351 22.6427 21.1018 22.6649 21.0907 22.676C21.0797 22.687 21.0797 22.687 21.0575 22.6981C21.0354 22.7424 21.0021 22.7867 20.9578 22.8089C20.9135 22.9529 20.8249 23.0526 20.6809 23.0858L19.3961 24.2377C18.5765 24.9798 17.7458 25.7108 16.9151 26.4529C12.3295 30.5511 7.74402 34.6493 3.1585 38.7474C3.1585 38.7696 3.1585 38.7917 3.1585 38.8139C4.22181 39.0243 5.28512 39.2348 6.33735 39.4452C7.81048 39.7332 9.27253 40.0212 10.7346 40.3092L11.3991 40.4421L10.7346 40.5307C10.5463 40.5528 10.358 40.5971 10.1254 40.6636C9.7931 40.7633 9.46082 40.863 9.13961 40.9848L9.06208 41.007C9.051 41.007 9.01777 41.0291 8.99562 41.0402L8.89594 41.1066C8.88486 41.1177 8.87378 41.1177 8.86271 41.1288C8.84056 41.1731 8.79625 41.2174 8.75195 41.2396C8.71872 41.3282 8.65226 41.4722 8.47504 41.5165C7.73294 42.1699 7.00192 42.8234 6.25982 43.488L4.90853 44.6621ZM29.6858 1.22152C13.9023 1.22152 1.04297 14.0698 1.04297 29.8644C1.04297 34.9594 2.39425 39.9436 4.96391 44.3187L6.09368 43.3108C6.83578 42.6462 7.57788 41.9817 8.31998 41.3171L8.35321 41.2949L8.38643 41.2839C8.45289 41.2728 8.50827 41.2396 8.53042 41.1066L8.61903 41.1288L8.64119 40.9848L8.67441 40.9627C8.69657 40.9405 8.71872 40.9183 8.75195 40.9073L8.87379 40.8408C8.90701 40.8297 8.94024 40.8076 8.96239 40.7965L9.051 40.7744C9.37221 40.6636 9.71557 40.5418 10.0479 40.4532C10.0811 40.4421 10.1143 40.4421 10.1365 40.431C8.86271 40.1762 7.57788 39.9215 6.29305 39.6667C5.20759 39.4563 4.12213 39.2348 3.03667 39.0243L2.95914 39.0133L2.94806 38.9357C2.93698 38.8693 2.92591 38.7917 2.91483 38.7142V38.6588L2.95914 38.6256C7.55573 34.5163 12.1634 30.396 16.76 26.2868C17.5907 25.5558 18.4214 24.8137 19.241 24.0716L20.5812 22.8753L20.6145 22.8643C20.692 22.8532 20.7474 22.82 20.7695 22.687L20.8692 22.7092L20.8914 22.5652L20.9246 22.5431C20.9357 22.5209 20.9689 22.5098 20.9911 22.4988C21.0132 22.4877 21.0243 22.4766 21.0354 22.4655L21.1018 22.4323C21.1461 22.4101 21.1794 22.388 21.2237 22.3769C21.5892 22.244 21.9325 22.1332 22.298 22.0225C22.8851 21.8674 23.3392 21.812 23.8155 21.8453C24.8788 22.0446 25.931 22.2551 26.9832 22.4544L27.3488 22.532C27.8361 22.6206 28.3013 22.7203 28.7887 22.82C31.2254 23.3073 33.4074 22.7092 35.2903 21.0589C37.1954 19.3753 39.0894 17.6806 40.9835 15.9971L43.1655 14.0477C44.2177 13.1062 45.2589 12.1647 46.3111 11.2343L49.0358 8.78651C49.058 8.77544 49.069 8.77544 49.0801 8.76436C43.7303 3.89087 36.8631 1.22152 29.6858 1.22152Z" fill="#D31E15" stroke="#D31E15" stroke-miterlimit="10"/>
</g>
<g id="Group_3">
<path id="Vector_2" d="M29.6857 58.7289C23.0511 58.7289 16.5604 56.414 11.4322 52.2162L11.3325 52.1276L11.4211 52.039C13.9465 49.7794 16.2503 47.7525 18.4766 45.8253C19.7393 44.7287 21.2456 44.1749 22.9624 44.1749C23.2837 44.1749 23.6049 44.186 23.9371 44.2303C24.8232 44.33 25.8533 44.4629 26.8169 44.7952C27.8692 44.9835 28.9436 45.1718 30.0179 45.349C30.2616 45.2604 30.4942 45.2715 30.6936 45.2825C30.749 45.2825 30.8043 45.2825 30.8708 45.2825C32.067 45.0056 32.9642 44.1749 33.8281 43.3664C34.0164 43.1891 34.2047 43.023 34.393 42.8458C39.7871 38.0387 45.0815 33.3092 49.9993 28.9009C50.0325 28.8788 50.0546 28.8566 50.0879 28.8234C50.1876 28.7459 50.2872 28.6573 50.3426 28.5576L49.5673 28.4136C47.3964 27.9816 45.2144 27.5497 43.0435 27.1177C42.977 27.1066 42.9105 27.0955 42.8552 27.0845L42.7666 27.0623L42.7887 26.8408C42.8995 26.8408 42.9992 26.8408 43.0988 26.8408C44.3061 26.5639 45.1922 25.7332 46.0562 24.9357C46.2445 24.7585 46.4328 24.5813 46.6321 24.404L47.3742 23.7395C49.9993 21.3913 52.6243 19.0543 55.2493 16.7061L55.349 16.6064L55.4155 16.7394C57.4978 20.8264 58.5611 25.2347 58.5611 29.8424C58.5611 45.781 45.602 58.7289 29.6857 58.7289ZM11.6648 52.1276C16.7487 56.2479 23.1397 58.5074 29.6857 58.5074C45.4802 58.5074 58.3285 45.6591 58.3285 29.8646C58.3285 25.3344 57.3095 21.0147 55.2826 16.9941C52.7018 19.309 50.0989 21.6239 47.5182 23.9388L46.7761 24.6034C46.5878 24.7695 46.3995 24.9468 46.2002 25.124C45.4027 25.8772 44.572 26.6414 43.4754 26.9958C45.5134 27.4057 47.5736 27.8155 49.6227 28.2142L50.6638 28.4136L50.6195 28.5354C50.5531 28.757 50.3869 28.8899 50.2429 29.0117C50.2097 29.0339 50.1876 29.056 50.1543 29.0892C45.2365 33.4865 39.9421 38.227 34.5481 43.0341C34.3598 43.2002 34.1715 43.3774 33.9832 43.5547C33.0971 44.3854 32.1889 45.2271 30.893 45.5262C30.8043 45.5262 30.749 45.5262 30.6936 45.5262C30.4942 45.5262 30.2838 45.5151 30.0512 45.5927L30.029 45.6037H30.0069C28.9214 45.4154 27.847 45.2271 26.7616 45.0389C25.7979 44.7176 24.8232 44.5847 23.915 44.485C21.8659 44.2414 20.0716 44.773 18.6206 46.0246C16.4275 47.8965 14.1569 49.9123 11.6648 52.1276Z" fill="#D31E15" stroke="#D31E15" stroke-miterlimit="10"/>
</g>
<g id="Group_4">
<path id="Vector_3" fill-rule="evenodd" clip-rule="evenodd" d="M50.5089 28.502C50.4314 28.7235 50.2431 28.8565 50.0769 29.0004C44.8822 33.6524 39.6875 38.3044 34.4707 42.9453C33.3852 43.9089 32.3995 45.0608 30.882 45.4042C30.594 45.4042 30.3061 45.371 30.0292 45.4706C28.9548 45.2823 27.8693 45.0941 26.7839 44.9058C25.8645 44.5956 24.9009 44.4627 23.9262 44.352C21.9104 44.1083 20.0496 44.6067 18.5543 45.9248C16.184 47.9849 13.8359 50.0562 11.4988 52.1385C8.89592 50.0008 6.65854 47.42 4.93066 44.4959C6.08258 43.4659 7.2345 42.4247 8.39749 41.4057C8.54148 41.3836 8.60794 41.2728 8.64116 41.1399H8.61901C8.68547 41.1399 8.7187 41.1177 8.74085 41.0623C8.77408 41.0291 8.81838 41.007 8.85161 40.9848C8.90699 40.9516 8.9513 40.9294 9.00668 40.9073C9.36111 40.7854 9.71555 40.6636 10.07 40.5639C10.5352 40.431 11.0336 40.3535 11.5431 40.3867C12.5953 40.5861 13.6476 40.7965 14.6998 40.9848C15.2979 41.1066 15.896 41.2174 16.4941 41.3503C18.9863 41.8487 21.1904 41.2396 23.0844 39.556C25.7205 37.23 28.3345 34.8819 30.9596 32.5337C32.92 30.7837 34.8694 29.0337 36.8188 27.2836C37.2951 26.9735 37.7824 26.7409 38.303 26.5969C38.8236 26.4419 39.3774 26.3865 39.9534 26.4308C40.9834 26.6412 42.0024 26.8406 43.0436 27.04C45.5468 27.5273 48.0279 28.0036 50.5089 28.502Z" fill="#D31E15" stroke="#D31E15" stroke-miterlimit="10"/>
</g>
<g id="Group_5">
<path id="Vector_4" fill-rule="evenodd" clip-rule="evenodd" d="M55.3159 16.8056C52.4471 19.3753 49.5674 21.9449 46.6986 24.5035C45.6021 25.4671 44.6274 26.6191 43.0989 26.9624C42.9992 26.9624 42.8995 26.9624 42.7888 26.9624C41.8473 26.7741 40.9169 26.5969 39.9754 26.4086C39.6099 26.3865 39.2666 26.3975 38.9343 26.4529C38.026 26.1649 37.0846 26.0209 36.1431 25.9213C34.1272 25.6776 32.2664 26.176 30.7601 27.483C28.3123 29.6096 25.8977 31.7584 23.472 33.9071C21.5115 35.6572 19.5621 37.4183 17.6017 39.1794C16.6823 40.0101 15.7409 40.7411 14.5336 40.9405C13.5478 40.7522 12.5399 40.5528 11.543 40.3645C11.255 40.3424 10.9671 40.3645 10.6902 40.4088C8.14265 39.9104 5.58407 39.3898 3.03656 38.8914C3.02548 38.8249 3.02548 38.7585 3.0144 38.6809C7.62207 34.5717 12.2187 30.4625 16.8263 26.3532C18.089 25.2235 19.3517 24.0937 20.6144 22.9639C20.7694 22.9418 20.8248 22.8421 20.858 22.6981H20.8359C20.9023 22.7092 20.9356 22.676 20.9577 22.6095C21.002 22.5873 21.0463 22.5652 21.0796 22.532C21.1349 22.5098 21.1792 22.4766 21.2346 22.4544C21.5891 22.3326 21.9435 22.2108 22.2979 22.1111C22.7853 21.9782 23.2616 21.9006 23.7711 21.9339C24.8233 22.1332 25.8755 22.3437 26.9167 22.543C27.5148 22.6538 28.1129 22.7756 28.711 22.8975C31.2031 23.3959 33.4073 22.7867 35.3013 21.1031C37.9374 18.7772 40.5625 16.429 43.1764 14.092C45.1369 12.3309 47.0863 10.5808 49.0468 8.8308C49.0911 8.79757 49.1354 8.76434 49.2018 8.74219C51.694 11.046 53.7652 13.7707 55.3159 16.8056Z" fill="#D31E15" stroke="#D31E15" stroke-miterlimit="10"/>
</g>
<g id="Group_6">
<path id="Vector_5" fill-rule="evenodd" clip-rule="evenodd" d="M11.554 40.3756C12.5509 40.5639 13.5477 40.7633 14.5446 40.9516C14.3563 40.9848 14.1458 40.9959 13.9354 41.007C13.0493 40.9183 12.1854 40.6968 11.3104 40.5307C11.0999 40.4864 10.9005 40.4531 10.7012 40.4088C10.9781 40.3756 11.2661 40.3535 11.554 40.3756Z" fill="#D31E15" stroke="#D31E15" stroke-miterlimit="10"/>
</g>
<g id="Group_7">
<path id="Vector_6" fill-rule="evenodd" clip-rule="evenodd" d="M39.9754 26.4088C40.9058 26.5971 41.8473 26.7854 42.7887 26.9626C42.6115 26.9626 42.4232 26.9626 42.2571 27.0291C41.1716 26.8408 40.0972 26.6525 39.0118 26.4642C38.9785 26.4531 38.9675 26.4531 38.9453 26.442C39.2665 26.4088 39.6099 26.3867 39.9754 26.4088Z" fill="#D31E15" stroke="#D31E15" stroke-miterlimit="10"/>
</g>
</g>
</svg>
