<svg width="198" height="57" viewBox="0 0 198 57" fill="none" xmlns="http://www.w3.org/2000/svg">
<g id="Group">
<path id="BG" d="M196.212 50.4264C196.212 53.464 193.7 55.9245 190.593 55.9245H6.72213C3.6168 55.9245 1.09619 53.464 1.09619 50.4264V6.58073C1.09619 3.54457 3.6168 1.07544 6.72213 1.07544H190.592C193.7 1.07544 196.21 3.54457 196.21 6.58073L196.212 50.4264Z" fill="url(#paint0_linear_1624_12)"/>
<path id="Border" d="M190 1.14178C193.383 1.14178 196.137 3.82613 196.137 7.125V49.875C196.137 53.1739 193.383 55.8582 190 55.8582H7.30769C3.92423 55.8582 1.17106 53.1739 1.17106 49.875V7.125C1.17106 3.82613 3.92423 1.14178 7.30769 1.14178H190ZM190 6.50331e-07H7.30769C3.29029 6.50331e-07 0 3.20803 0 7.125V49.875C0 53.792 3.29029 57 7.30769 57H190C194.017 57 197.308 53.792 197.308 49.875V7.125C197.308 3.20803 194.017 6.50331e-07 190 6.50331e-07Z" fill="white"/>
<g id="Icon">
<g id="Vector">
<path d="M44.0332 28.1922C43.9908 23.5995 47.8902 21.3651 48.0685 21.261C45.8601 18.1218 42.4372 17.6928 41.2343 17.6586C38.3595 17.3637 35.5709 19.3359 34.1064 19.3359C32.6127 19.3359 30.3576 17.6871 27.927 17.7356C24.7993 17.7826 21.8733 19.5482 20.2686 22.2899C16.9567 27.8801 19.4267 36.0953 22.5997 40.6139C24.1869 42.827 26.0416 45.2979 28.4692 45.211C30.8442 45.1155 31.7314 43.7347 34.5975 43.7347C37.4372 43.7347 38.2703 45.211 40.7462 45.1554C43.2951 45.1155 44.8999 42.9324 46.4316 40.6994C48.2658 38.163 49.0024 35.6649 49.0316 35.5367C48.9717 35.5167 44.0814 33.697 44.0332 28.1922Z" fill="white"/>
<path d="M39.3562 14.6861C40.6336 13.1286 41.5076 11.0096 41.265 8.85925C39.4162 8.93905 37.104 10.1061 35.7726 11.6295C34.5946 12.9718 33.5422 15.172 33.8141 17.2411C35.8909 17.3922 38.0233 16.2194 39.3562 14.6861Z" fill="white"/>
</g>
</g>
<g id="Download on the">
<path id="D" d="M71.6883 14.2628C71.6883 15.94 71.1724 17.2025 70.142 18.0504C69.1876 18.8327 67.8313 19.2246 66.0745 19.2246C65.2034 19.2246 64.4581 19.1876 63.834 19.1135V9.94929C64.6481 9.82104 65.525 9.75549 66.4721 9.75549C68.1455 9.75549 69.4068 10.1103 70.2575 10.82C71.2104 11.6222 71.6883 12.7694 71.6883 14.2628ZM70.0733 14.3041C70.0733 13.2168 69.7781 12.3832 69.1876 11.8018C68.5971 11.2218 67.7348 10.9311 66.5992 10.9311C66.1169 10.9311 65.7062 10.9625 65.3657 11.028V17.9948C65.5542 18.0233 65.8991 18.0362 66.4004 18.0362C67.5726 18.0362 68.4773 17.7184 69.1145 17.0828C69.7518 16.4473 70.0733 15.521 70.0733 14.3041Z" fill="white"/>
<path id="o" d="M80.2516 15.7277C80.2516 16.7608 79.949 17.6072 79.344 18.2713C78.7097 18.9539 77.8693 19.2944 76.8199 19.2944C75.8085 19.2944 75.0032 18.9681 74.4025 18.3126C73.8033 17.6585 73.5037 16.8335 73.5037 15.8388C73.5037 14.7986 73.812 13.945 74.4317 13.2824C75.0514 12.6197 75.8845 12.2877 76.9339 12.2877C77.9453 12.2877 78.7579 12.614 79.3732 13.2681C79.9578 13.9037 80.2516 14.7245 80.2516 15.7277ZM78.6629 15.7761C78.6629 15.1562 78.5255 14.6247 78.2522 14.1815C77.9307 13.6457 77.4732 13.3778 76.8784 13.3778C76.2631 13.3778 75.7954 13.6457 75.4738 14.1815C75.199 14.6247 75.0631 15.1648 75.0631 15.8032C75.0631 16.4231 75.2005 16.9546 75.4738 17.3978C75.8056 17.9336 76.2674 18.2015 76.8637 18.2015C77.4484 18.2015 77.9073 17.9293 78.2376 17.3835C78.5211 16.9318 78.6629 16.396 78.6629 15.7761Z" fill="white"/>
<path id="w" d="M91.7335 12.4246L89.5778 19.142H88.1747L87.2817 16.225C87.0551 15.4969 86.871 14.773 86.7278 14.0548H86.7C86.567 14.7929 86.3828 15.5154 86.1461 16.225L85.1975 19.142H83.7784L81.7512 12.4246H83.3253L84.1043 15.618C84.2928 16.3732 84.4478 17.0929 84.572 17.774H84.5998C84.7138 17.2126 84.9023 16.4972 85.1683 15.6322L86.1461 12.426H87.3942L88.3311 15.5638C88.5576 16.3291 88.7418 17.0658 88.8835 17.7754H88.9259C89.0297 17.0843 89.1861 16.3476 89.3936 15.5638L90.2296 12.426H91.7335V12.4246Z" fill="white"/>
<path id="n" d="M99.6741 19.142H98.1424V15.2945C98.1424 14.1089 97.6805 13.5161 96.7539 13.5161C96.2994 13.5161 95.9325 13.6785 95.6475 14.0048C95.3655 14.3312 95.2222 14.7159 95.2222 15.1562V19.1406H93.6905V14.344C93.6905 13.754 93.6715 13.1142 93.635 12.4217H94.9811L95.0527 13.4719H95.0951C95.2734 13.1456 95.5394 12.8762 95.8887 12.6611C96.3038 12.4103 96.7685 12.2834 97.2772 12.2834C97.9202 12.2834 98.4551 12.4858 98.8805 12.8919C99.4095 13.3892 99.6741 14.1317 99.6741 15.1178V19.142Z" fill="white"/>
<path id="l" d="M103.898 19.142H102.367V9.34229H103.898V19.142Z" fill="white"/>
<path id="o_2" d="M112.916 15.7277C112.916 16.7608 112.613 17.6072 112.008 18.2713C111.374 18.9539 110.532 19.2944 109.484 19.2944C108.471 19.2944 107.666 18.9681 107.067 18.3126C106.467 17.6585 106.168 16.8335 106.168 15.8388C106.168 14.7986 106.476 13.945 107.096 13.2824C107.715 12.6197 108.549 12.2877 109.596 12.2877C110.609 12.2877 111.42 12.614 112.037 13.2681C112.622 13.9037 112.916 14.7245 112.916 15.7277ZM111.325 15.7761C111.325 15.1562 111.188 14.6247 110.915 14.1815C110.595 13.6457 110.136 13.3778 109.542 13.3778C108.926 13.3778 108.458 13.6457 108.138 14.1815C107.863 14.6247 107.727 15.1648 107.727 15.8032C107.727 16.4231 107.865 16.9546 108.138 17.3978C108.47 17.9336 108.931 18.2015 109.528 18.2015C110.112 18.2015 110.57 17.9293 110.9 17.3835C111.185 16.9318 111.325 16.396 111.325 15.7761Z" fill="white"/>
<path id="a" d="M120.329 19.142H118.953L118.839 18.3682H118.797C118.326 18.9852 117.655 19.2944 116.784 19.2944C116.134 19.2944 115.608 19.0907 115.212 18.686C114.852 18.3183 114.672 17.8609 114.672 17.318C114.672 16.4972 115.023 15.8716 115.729 15.4384C116.434 15.0052 117.424 14.7929 118.7 14.8028V14.6774C118.7 13.7925 118.224 13.3508 117.27 13.3508C116.59 13.3508 115.991 13.5175 115.473 13.8481L115.162 12.8677C115.802 12.4815 116.593 12.2877 117.525 12.2877C119.326 12.2877 120.229 13.214 120.229 15.0665V17.5403C120.229 18.2114 120.263 18.7458 120.329 19.142ZM118.738 16.8335V15.7975C117.049 15.769 116.204 16.2207 116.204 17.1512C116.204 17.5018 116.301 17.764 116.498 17.9393C116.695 18.1145 116.947 18.2015 117.246 18.2015C117.582 18.2015 117.897 18.0974 118.183 17.8908C118.471 17.6828 118.648 17.4191 118.714 17.0957C118.73 17.023 118.738 16.9346 118.738 16.8335Z" fill="white"/>
<path id="d" d="M129.032 19.142H127.673L127.601 18.0633H127.559C127.125 18.8841 126.385 19.2945 125.346 19.2945C124.516 19.2945 123.825 18.9767 123.276 18.3412C122.728 17.7056 122.455 16.8805 122.455 15.8674C122.455 14.7801 122.752 13.8994 123.348 13.2268C123.925 12.5998 124.633 12.2863 125.475 12.2863C126.4 12.2863 127.047 12.5899 127.416 13.1983H127.445V9.34229H128.978V17.3323C128.978 17.9863 128.995 18.5891 129.032 19.142ZM127.445 16.3091V15.1891C127.445 14.9953 127.43 14.8385 127.402 14.7188C127.316 14.3597 127.131 14.0576 126.848 13.8139C126.563 13.5703 126.22 13.4477 125.824 13.4477C125.252 13.4477 124.805 13.6686 124.476 14.1118C124.15 14.5549 123.985 15.1207 123.985 15.8118C123.985 16.4758 124.142 17.0145 124.456 17.4292C124.788 17.8709 125.235 18.0918 125.795 18.0918C126.297 18.0918 126.699 17.908 127.005 17.5389C127.3 17.1983 127.445 16.7879 127.445 16.3091Z" fill="white"/>
<path id="o_3" d="M142.132 15.7277C142.132 16.7608 141.829 17.6072 141.224 18.2713C140.59 18.9539 139.751 19.2944 138.7 19.2944C137.69 19.2944 136.885 18.9681 136.283 18.3126C135.683 17.6585 135.384 16.8335 135.384 15.8388C135.384 14.7986 135.692 13.945 136.312 13.2824C136.932 12.6197 137.765 12.2877 138.815 12.2877C139.825 12.2877 140.639 12.614 141.253 13.2681C141.838 13.9037 142.132 14.7245 142.132 15.7277ZM140.544 15.7761C140.544 15.1562 140.407 14.6247 140.134 14.1815C139.811 13.6457 139.355 13.3778 138.758 13.3778C138.145 13.3778 137.677 13.6457 137.354 14.1815C137.079 14.6247 136.943 15.1648 136.943 15.8032C136.943 16.4231 137.081 16.9546 137.354 17.3978C137.686 17.9336 138.148 18.2015 138.744 18.2015C139.328 18.2015 139.789 17.9293 140.119 17.3835C140.401 16.9318 140.544 16.396 140.544 15.7761Z" fill="white"/>
<path id="n_2" d="M150.367 19.142H148.837V15.2945C148.837 14.1089 148.375 13.5161 147.447 13.5161C146.993 13.5161 146.626 13.6785 146.342 14.0048C146.059 14.3312 145.917 14.7159 145.917 15.1562V19.1406H144.384V14.344C144.384 13.754 144.366 13.1142 144.33 12.4217H145.674L145.746 13.4719H145.788C145.968 13.1456 146.234 12.8762 146.582 12.6611C146.998 12.4103 147.462 12.2834 147.972 12.2834C148.613 12.2834 149.148 12.4858 149.574 12.8919C150.104 13.3892 150.367 14.1317 150.367 15.1178V19.142Z" fill="white"/>
<path id="t" d="M160.676 13.5432H158.989V16.8064C158.989 17.6358 159.289 18.0504 159.882 18.0504C160.157 18.0504 160.385 18.0276 160.565 17.9806L160.604 19.1135C160.302 19.2246 159.904 19.2802 159.414 19.2802C158.809 19.2802 158.339 19.1007 157.998 18.7416C157.656 18.3825 157.487 17.7783 157.487 16.9304V13.5432H156.48V12.4245H157.487V11.1933L158.988 10.7516V12.4231H160.674V13.5432H160.676Z" fill="white"/>
<path id="h" d="M168.784 19.142H167.251V15.323C167.251 14.1189 166.789 13.5161 165.864 13.5161C165.154 13.5161 164.669 13.8652 164.403 14.5635C164.357 14.7103 164.331 14.8898 164.331 15.1007V19.1406H162.801V9.34229H164.331V13.3907H164.36C164.843 12.654 165.534 12.2863 166.43 12.2863C167.064 12.2863 167.589 12.4887 168.005 12.8948C168.524 13.4007 168.784 14.1531 168.784 15.1477V19.142Z" fill="white"/>
<path id="e" d="M177.148 15.4655C177.148 15.7334 177.128 15.9585 177.091 16.1424H172.498C172.518 16.8064 172.738 17.3123 173.163 17.6628C173.552 17.9763 174.053 18.1331 174.667 18.1331C175.346 18.1331 175.966 18.0276 176.524 17.8153L176.764 18.8527C176.111 19.1292 175.342 19.2674 174.452 19.2674C173.385 19.2674 172.545 18.961 171.937 18.3483C171.326 17.7355 171.023 16.9133 171.023 15.8816C171.023 14.8684 171.305 14.0248 171.874 13.3522C172.467 12.634 173.27 12.2749 174.282 12.2749C175.273 12.2749 176.026 12.634 176.535 13.3522C176.945 13.9222 177.148 14.6276 177.148 15.4655ZM175.687 15.0793C175.699 14.6361 175.598 14.2542 175.39 13.9322C175.124 13.5175 174.719 13.3095 174.171 13.3095C173.671 13.3095 173.264 13.5118 172.952 13.9179C172.698 14.2414 172.548 14.6276 172.498 15.0793H175.687Z" fill="white"/>
</g>
<g id="App Store">
<path id="A" d="M78.4043 44.8931H75.0851L73.267 39.3228H66.9473L65.2153 44.8931H61.9839L68.2451 25.9292H72.1123L78.4043 44.8931ZM72.7189 36.9858L71.0747 32.0339C70.9007 31.528 70.5748 30.3367 70.094 28.4614H70.0355C69.844 29.268 69.5357 30.4593 69.1118 32.0339L67.4968 36.9858H72.7189Z" fill="white"/>
<path id="p" d="M94.5058 37.8878C94.5058 40.2134 93.8613 42.0517 92.5722 43.4012C91.4176 44.6024 89.9838 45.2024 88.2724 45.2024C86.425 45.2024 85.0979 44.5554 84.2897 43.2615H84.2312V50.4649H81.1152V35.7204C81.1152 34.2584 81.0758 32.7578 80.9998 31.2188H83.7401L83.9141 33.3863H83.9725C85.0117 31.7532 86.5887 30.9381 88.705 30.9381C90.3594 30.9381 91.7406 31.5751 92.8455 32.8505C93.9534 34.1273 94.5058 35.8059 94.5058 37.8878ZM91.3314 37.999C91.3314 36.668 91.0244 35.5708 90.4077 34.7072C89.7339 33.8066 88.8292 33.3563 87.6951 33.3563C86.9263 33.3563 86.2277 33.6071 85.6036 34.1016C84.9781 34.6004 84.5688 35.2516 84.3774 36.0581C84.2809 36.4343 84.2327 36.7421 84.2327 36.9844V39.2644C84.2327 40.259 84.5454 41.0984 85.171 41.7838C85.7965 42.4692 86.6091 42.8112 87.6088 42.8112C88.7824 42.8112 89.6959 42.3695 90.3492 41.4888C91.004 40.6067 91.3314 39.4439 91.3314 37.999Z" fill="white"/>
<path id="p_2" d="M110.637 37.8878C110.637 40.2134 109.993 42.0517 108.702 43.4012C107.549 44.6024 106.115 45.2024 104.404 45.2024C102.556 45.2024 101.229 44.5554 100.422 43.2615H100.364V50.4649H97.248V35.7204C97.248 34.2584 97.2086 32.7578 97.1326 31.2188H99.873L100.047 33.3863H100.105C101.143 31.7532 102.72 30.9381 104.838 30.9381C106.491 30.9381 107.872 31.5751 108.98 32.8505C110.083 34.1273 110.637 35.8059 110.637 37.8878ZM107.463 37.999C107.463 36.668 107.154 35.5708 106.538 34.7072C105.864 33.8066 104.962 33.3563 103.826 33.3563C103.056 33.3563 102.359 33.6071 101.733 34.1016C101.108 34.6004 100.7 35.2516 100.509 36.0581C100.414 36.4343 100.364 36.7421 100.364 36.9844V39.2644C100.364 40.259 100.677 41.0984 101.299 41.7838C101.925 42.4678 102.738 42.8112 103.74 42.8112C104.914 42.8112 105.827 42.3695 106.481 41.4888C107.135 40.6067 107.463 39.4439 107.463 37.999Z" fill="white"/>
<path id="S" d="M128.672 39.575C128.672 41.1881 128.098 42.5006 126.945 43.5137C125.677 44.621 123.913 45.1739 121.647 45.1739C119.554 45.1739 117.876 44.7806 116.606 43.9925L117.328 41.4603C118.696 42.2669 120.197 42.6716 121.832 42.6716C123.006 42.6716 123.919 42.4122 124.575 41.8964C125.229 41.3805 125.555 40.688 125.555 39.8244C125.555 39.0549 125.286 38.4065 124.746 37.8807C124.21 37.3549 123.314 36.8661 122.063 36.4144C118.658 35.1761 116.956 33.362 116.956 30.9766C116.956 29.4176 117.553 28.1394 118.747 27.1448C119.937 26.1487 121.524 25.6514 123.509 25.6514C125.278 25.6514 126.749 25.952 127.922 26.552L127.143 29.0286C126.047 28.4472 124.808 28.1565 123.421 28.1565C122.325 28.1565 121.468 28.4201 120.854 28.9445C120.336 29.4134 120.075 29.9848 120.075 30.6617C120.075 31.4112 120.372 32.0311 120.968 32.5184C121.487 32.9687 122.43 33.4561 123.798 33.9819C125.471 34.6388 126.701 35.4069 127.491 36.2876C128.279 37.1654 128.672 38.264 128.672 39.575Z" fill="white"/>
<path id="t_2" d="M138.975 33.4988H135.54V40.1379C135.54 41.8265 136.145 42.6701 137.358 42.6701C137.915 42.6701 138.377 42.6231 138.742 42.529L138.829 44.8361C138.215 45.0598 137.407 45.1724 136.405 45.1724C135.175 45.1724 134.213 44.8062 133.519 44.0752C132.828 43.3427 132.48 42.1144 132.48 40.3887V33.496H130.434V31.216H132.48V28.7122L135.54 27.8116V31.216H138.975V33.4988Z" fill="white"/>
<path id="o_4" d="M154.471 37.9435C154.471 40.0453 153.855 41.771 152.624 43.1205C151.333 44.5098 149.621 45.2024 147.485 45.2024C145.427 45.2024 143.789 44.5369 142.567 43.206C141.345 41.875 140.734 40.1949 140.734 38.17C140.734 36.051 141.363 34.3154 142.624 32.9659C143.883 31.615 145.581 30.9396 147.716 30.9396C149.774 30.9396 151.43 31.6051 152.68 32.9374C153.875 34.2299 154.471 35.8986 154.471 37.9435ZM151.238 38.0418C151.238 36.7806 150.962 35.6991 150.402 34.7971C149.749 33.7055 148.815 33.1611 147.605 33.1611C146.353 33.1611 145.401 33.7069 144.748 34.7971C144.188 35.7005 143.912 36.7992 143.912 38.0988C143.912 39.3599 144.188 40.4415 144.748 41.3421C145.422 42.4336 146.363 42.978 147.577 42.978C148.767 42.978 149.701 42.4222 150.375 41.3136C150.949 40.3945 151.238 39.3015 151.238 38.0418Z" fill="white"/>
<path id="r" d="M164.6 33.8907C164.291 33.8351 163.963 33.8066 163.618 33.8066C162.521 33.8066 161.674 34.2099 161.077 35.0179C160.559 35.7304 160.298 36.631 160.298 37.7183V44.8931H157.184L157.213 35.5252C157.213 33.9491 157.174 32.5142 157.096 31.2203H159.81L159.924 33.8366H160.011C160.339 32.9374 160.858 32.2135 161.569 31.6706C162.263 31.1818 163.013 30.9381 163.821 30.9381C164.109 30.9381 164.369 30.9581 164.6 30.9937V33.8907Z" fill="white"/>
<path id="e_2" d="M178.536 37.409C178.536 37.9534 178.499 38.4122 178.422 38.787H169.074C169.11 40.1379 169.562 41.171 170.43 41.8835C171.218 42.5205 172.236 42.8397 173.487 42.8397C174.871 42.8397 176.134 42.6245 177.27 42.1928L177.758 44.3018C176.431 44.8661 174.864 45.1468 173.056 45.1468C170.881 45.1468 169.174 44.5226 167.932 43.2758C166.693 42.0289 166.072 40.3545 166.072 38.2541C166.072 36.1921 166.649 34.475 167.805 33.1055C169.015 31.6435 170.651 30.9125 172.708 30.9125C174.73 30.9125 176.26 31.6435 177.299 33.1055C178.122 34.2669 178.536 35.7033 178.536 37.409ZM175.564 36.621C175.585 35.7204 175.382 34.9424 174.959 34.2854C174.42 33.4404 173.591 33.0186 172.476 33.0186C171.457 33.0186 170.629 33.4305 169.996 34.257C169.477 34.9139 169.169 35.7019 169.074 36.6196H175.564V36.621Z" fill="white"/>
</g>
</g>
<defs>
<linearGradient id="paint0_linear_1624_12" x1="-61.2953" y1="77.609" x2="-40.0321" y2="-29.728" gradientUnits="userSpaceOnUse">
<stop stop-color="#0D0D0F"/>
</linearGradient>
</defs>
</svg>
