<svg width="198" height="57" viewBox="0 0 198 57" fill="none" xmlns="http://www.w3.org/2000/svg">
<g id="Group">
<path id="BG" d="M190.231 57H7.53841C3.521 57 0.230713 53.792 0.230713 49.875V7.125C0.230713 3.20803 3.521 6.50331e-07 7.53841 6.50331e-07H190.231C194.248 6.50331e-07 197.538 3.20803 197.538 7.125V49.875C197.538 53.792 194.248 57 190.231 57Z" fill="url(#paint0_linear_1624_187)"/>
<path id="Border" d="M190.231 1.14178C193.614 1.14178 196.367 3.82613 196.367 7.125V49.875C196.367 53.1739 193.614 55.8582 190.231 55.8582H7.53841C4.15494 55.8582 1.40177 53.1739 1.40177 49.875V7.125C1.40177 3.82613 4.15494 1.14178 7.53841 1.14178H190.231ZM190.231 6.50331e-07H7.53841C3.521 6.50331e-07 0.230713 3.20803 0.230713 7.125V49.875C0.230713 53.792 3.521 57 7.53841 57H190.231C194.248 57 197.538 53.792 197.538 49.875V7.125C197.538 3.20803 194.248 6.50331e-07 190.231 6.50331e-07Z" fill="white"/>
<g id="Icon">
<path id="Vector" d="M14.3856 10.7427C13.9562 11.1809 13.7078 11.8631 13.7078 12.7466V44.2605C13.7078 45.144 13.9562 45.8262 14.3856 46.2644L14.4915 46.3606L32.6036 28.7084V28.2916L14.4915 10.6394L14.3856 10.7427Z" fill="white"/>
<path id="Vector_2" d="M40.8266 34.5953L34.7959 28.7083V28.2915L40.8339 22.4045L40.9691 22.4811L48.1196 26.4479C50.1603 27.5736 50.1603 29.4261 48.1196 30.559L40.9691 34.5187L40.8266 34.5953Z" fill="white"/>
<path id="Vector_3" d="M39.8732 35.615L33.7 29.5961L15.4819 47.3605C16.1597 48.0552 17.265 48.1389 18.5219 47.4443L39.8732 35.615Z" fill="white"/>
<path id="Vector_4" d="M39.8732 21.385L18.5219 9.55569C17.265 8.86813 16.1597 8.95184 15.4819 9.64653L33.7 27.4038L39.8732 21.385Z" fill="white"/>
</g>
<g id="GET IT ON">
<path id="G" d="M69.5332 14.5974C69.5332 15.7873 69.1678 16.7403 68.448 17.451C67.6204 18.2935 66.5425 18.7175 65.2216 18.7175C63.9592 18.7175 62.8813 18.2864 61.9971 17.4367C61.1111 16.5746 60.6689 15.5166 60.6689 14.2501C60.6689 12.9836 61.1111 11.9256 61.9971 11.0706C62.8813 10.2138 63.9592 9.78271 65.2216 9.78271C65.8501 9.78271 66.4493 9.90918 67.0212 10.1443C67.5912 10.3812 68.0552 10.7018 68.3913 11.0973L67.6277 11.849C67.0413 11.1739 66.2429 10.8408 65.2216 10.8408C64.3009 10.8408 63.5025 11.1543 62.8247 11.7866C62.1542 12.4207 61.8181 13.2419 61.8181 14.2501C61.8181 15.2583 62.1542 16.0866 62.8247 16.7207C63.5025 17.3459 64.3009 17.6665 65.2216 17.6665C66.199 17.6665 67.0212 17.3459 67.6697 16.7136C68.0972 16.295 68.3402 15.7178 68.4041 14.9804H65.2216V13.9508H69.4674C69.5186 14.1735 69.5332 14.389 69.5332 14.5974Z" fill="white" stroke="white" stroke-opacity="0.2" stroke-width="0.175385" stroke-miterlimit="10"/>
<path id="E" d="M76.2691 11.0278H72.2809V13.7353H75.8763V14.7649H72.2809V17.4724H76.2691V18.5215H71.1519V9.97864H76.2691V11.0278Z" fill="white" stroke="white" stroke-opacity="0.2" stroke-width="0.175385" stroke-miterlimit="10"/>
<path id="T" d="M81.0228 18.5215H79.8938V11.0278H77.4475V9.97864H83.4709V11.0278H81.0228V18.5215Z" fill="white" stroke="white" stroke-opacity="0.2" stroke-width="0.175385" stroke-miterlimit="10"/>
<path id="I" d="M87.8298 18.5215V9.97864H88.957V18.5215H87.8298Z" fill="white" stroke="white" stroke-opacity="0.2" stroke-width="0.175385" stroke-miterlimit="10"/>
<path id="T_2" d="M93.9537 18.5215H92.8338V11.0278H90.3784V9.97864H96.4091V11.0278H93.9537V18.5215Z" fill="white" stroke="white" stroke-opacity="0.2" stroke-width="0.175385" stroke-miterlimit="10"/>
<path id="O" d="M107.813 17.4225C106.949 18.2864 105.878 18.7175 104.601 18.7175C103.317 18.7175 102.246 18.2864 101.382 17.4225C100.52 16.5604 100.09 15.5023 100.09 14.2501C100.09 12.9979 100.52 11.9398 101.382 11.0777C102.246 10.2138 103.317 9.78271 104.601 9.78271C105.871 9.78271 106.941 10.2138 107.805 11.0848C108.675 11.9541 109.104 13.005 109.104 14.2501C109.104 15.5023 108.675 16.5604 107.813 17.4225ZM102.217 16.7064C102.867 17.3459 103.658 17.6665 104.601 17.6665C105.536 17.6665 106.335 17.3459 106.978 16.7064C107.626 16.067 107.955 15.2458 107.955 14.2501C107.955 13.2544 107.626 12.4332 106.978 11.7937C106.335 11.1543 105.536 10.8337 104.601 10.8337C103.658 10.8337 102.867 11.1543 102.217 11.7937C101.568 12.4332 101.239 13.2544 101.239 14.2501C101.239 15.2458 101.568 16.067 102.217 16.7064Z" fill="white" stroke="white" stroke-opacity="0.2" stroke-width="0.175385" stroke-miterlimit="10"/>
<path id="N" d="M110.688 18.5215V9.97864H112.058L116.319 16.6227H116.368L116.319 14.9804V9.97864H117.446V18.5215H116.269L111.808 11.5497H111.759L111.808 13.1991V18.5215H110.688Z" fill="white" stroke="white" stroke-opacity="0.2" stroke-width="0.175385" stroke-miterlimit="10"/>
</g>
<g id="Google Play">
<path id="Google Play_2" d="M99.8125 30.9973C96.3797 30.9973 93.5754 33.5445 93.5754 37.0589C93.5754 40.5448 96.3797 43.1187 99.8125 43.1187C103.253 43.1187 106.057 40.5448 106.057 37.0589C106.057 33.5445 103.253 30.9973 99.8125 30.9973ZM99.8125 40.7318C97.929 40.7318 96.3085 39.216 96.3085 37.0589C96.3085 34.8733 97.929 33.3842 99.8125 33.3842C101.696 33.3842 103.324 34.8733 103.324 37.0589C103.324 39.216 101.696 40.7318 99.8125 40.7318ZM86.2038 30.9973C82.7637 30.9973 79.9667 33.5445 79.9667 37.0589C79.9667 40.5448 82.7637 43.1187 86.2038 43.1187C89.642 43.1187 92.4409 40.5448 92.4409 37.0589C92.4409 33.5445 89.642 30.9973 86.2038 30.9973ZM86.2038 40.7318C84.3184 40.7318 82.6924 39.216 82.6924 37.0589C82.6924 34.8733 84.3184 33.3842 86.2038 33.3842C88.0873 33.3842 89.7078 34.8733 89.7078 37.0589C89.7078 39.216 88.0873 40.7318 86.2038 40.7318ZM70.0099 32.8551V35.4308H76.3183C76.1338 36.8701 75.6405 37.9281 74.8842 38.6656C73.9634 39.5562 72.5293 40.5448 70.0099 40.5448C66.1277 40.5448 63.0877 37.49 63.0877 33.7048C63.0877 29.9197 66.1277 26.8648 70.0099 26.8648C72.1091 26.8648 73.6364 27.6646 74.7636 28.7013L76.6252 26.8862C75.0486 25.4184 72.9513 24.2909 70.0099 24.2909C64.6863 24.2909 60.2122 28.5142 60.2122 33.7048C60.2122 38.8954 64.6863 43.1187 70.0099 43.1187C72.8873 43.1187 75.0486 42.1996 76.7476 40.4753C78.4887 38.7778 79.0313 36.3909 79.0313 34.4636C79.0313 33.8651 78.9801 33.3147 78.8888 32.8551H70.0099ZM136.229 34.8519C135.715 33.4964 134.131 30.9973 130.905 30.9973C127.708 30.9973 125.046 33.4536 125.046 37.0589C125.046 40.454 127.68 43.1187 131.212 43.1187C134.067 43.1187 135.715 41.4212 136.393 40.4326L134.274 39.0557C133.567 40.0639 132.604 40.7318 131.212 40.7318C129.829 40.7318 128.837 40.1137 128.201 38.8954L136.515 35.5413L136.229 34.8519ZM127.752 36.8701C127.68 34.5331 129.613 33.3361 130.998 33.3361C132.083 33.3361 133.004 33.8651 133.311 34.6221L127.752 36.8701ZM120.994 42.75H123.727V24.9375H120.994V42.75ZM116.518 32.3475H116.427C115.813 31.6386 114.642 30.9973 113.158 30.9973C110.045 30.9973 107.199 33.6621 107.199 37.0785C107.199 40.4753 110.045 43.1187 113.158 43.1187C114.642 43.1187 115.813 42.4721 116.427 41.7418H116.518V42.6111C116.518 44.9285 115.248 46.1736 113.2 46.1736C111.53 46.1736 110.495 44.9979 110.067 44.0093L107.69 44.9766C108.375 46.5832 110.189 48.5604 113.2 48.5604C116.405 48.5604 119.108 46.7222 119.108 42.2495V31.366H116.518V32.3475ZM113.392 40.7318C111.508 40.7318 109.932 39.1946 109.932 37.0785C109.932 34.9428 111.508 33.3842 113.392 33.3842C115.248 33.3842 116.712 34.9428 116.712 37.0785C116.712 39.1946 115.248 40.7318 113.392 40.7318ZM149.024 24.9375H142.488V42.75H145.213V36.0008H149.024C152.052 36.0008 155.02 33.8651 155.02 30.4683C155.02 27.0732 152.044 24.9375 149.024 24.9375ZM149.096 33.5231H145.213V27.4152H149.096C151.131 27.4152 152.293 29.0629 152.293 30.4683C152.293 31.847 151.131 33.5231 149.096 33.5231ZM165.945 30.9635C163.976 30.9635 161.928 31.8113 161.086 33.6906L163.505 34.6791C164.025 33.6906 164.983 33.3699 165.995 33.3699C167.409 33.3699 168.843 34.1982 168.865 35.6606V35.8476C168.371 35.5698 167.315 35.1583 166.017 35.1583C163.411 35.1583 160.757 36.5566 160.757 39.1661C160.757 41.553 162.891 43.0902 165.289 43.0902C167.124 43.0902 168.136 42.2833 168.772 41.3446H168.865V42.7215H171.497V35.8886C171.497 32.7305 169.078 30.9635 165.945 30.9635ZM165.616 40.7247C164.725 40.7247 163.483 40.2936 163.483 39.216C163.483 37.8373 165.032 37.3083 166.373 37.3083C167.573 37.3083 168.136 37.5666 168.865 37.9068C168.651 39.5562 167.195 40.7247 165.616 40.7247ZM181.089 31.3536L177.955 39.0753H177.862L174.623 31.3536H171.684L176.551 42.1444L173.774 48.149H176.622L184.121 31.3536H181.089ZM156.518 42.75H159.251V24.9375H156.518V42.75Z" fill="white"/>
</g>
</g>
<defs>
<linearGradient id="paint0_linear_1624_187" x1="-62.8618" y1="-22.5349" x2="-40.2014" y2="88.7756" gradientUnits="userSpaceOnUse">
<stop stop-color="#0D0D0F"/>
</linearGradient>
</defs>
</svg>
