<svg width="198" height="57" viewBox="0 0 198 57" fill="none" xmlns="http://www.w3.org/2000/svg">
<g id="Group">
<path id="BG" d="M196.212 50.4261C196.212 53.4637 193.7 55.9243 190.593 55.9243H6.72212C3.6168 55.9243 1.09619 53.4637 1.09619 50.4261V6.58049C1.09619 3.54432 3.6168 1.0752 6.72212 1.0752H190.592C193.7 1.0752 196.21 3.54432 196.21 6.58049L196.212 50.4261Z" fill="url(#paint0_linear_1672_159)"/>
<path id="Border" d="M190 1.14178C193.383 1.14178 196.137 3.82613 196.137 7.125V49.875C196.137 53.1739 193.383 55.8582 190 55.8582H7.30769C3.92423 55.8582 1.17106 53.1739 1.17106 49.875V7.125C1.17106 3.82613 3.92423 1.14178 7.30769 1.14178H190ZM190 6.50331e-07H7.30769C3.29029 6.50331e-07 0 3.20803 0 7.125V49.875C0 53.792 3.29029 57 7.30769 57H190C194.017 57 197.308 53.792 197.308 49.875V7.125C197.308 3.20803 194.017 6.50331e-07 190 6.50331e-07Z" fill="white"/>
<g id="Icon">
<g id="Vector">
<path d="M44.0332 28.1923C43.9908 23.5996 47.8902 21.3652 48.0685 21.2611C45.8601 18.1219 42.4372 17.6929 41.2343 17.6587C38.3595 17.3638 35.5709 19.336 34.1064 19.336C32.6127 19.336 30.3576 17.6872 27.927 17.7357C24.7993 17.7827 21.8733 19.5483 20.2686 22.29C16.9567 27.8803 19.4267 36.0954 22.5997 40.6141C24.1869 42.8271 26.0416 45.298 28.4692 45.2111C30.8442 45.1156 31.7314 43.7348 34.5975 43.7348C37.4372 43.7348 38.2703 45.2111 40.7462 45.1555C43.2951 45.1156 44.8999 42.9325 46.4316 40.6996C48.2658 38.1631 49.0024 35.665 49.0316 35.5368C48.9717 35.5168 44.0814 33.6971 44.0332 28.1923Z" fill="white"/>
<path d="M39.3562 14.6862C40.6336 13.1287 41.5076 11.0097 41.265 8.85938C39.4162 8.93917 37.104 10.1063 35.7726 11.6296C34.5946 12.9719 33.5422 15.1721 33.8141 17.2412C35.8909 17.3923 38.0233 16.2195 39.3562 14.6862Z" fill="white"/>
</g>
</g>
<g id="Download on the">
<path id="D" d="M71.6883 14.2631C71.6883 15.9404 71.1724 17.2029 70.142 18.0508C69.1876 18.8331 67.8313 19.225 66.0745 19.225C65.2034 19.225 64.4581 19.1879 63.834 19.1138V9.94966C64.6481 9.82141 65.525 9.75586 66.4721 9.75586C68.1455 9.75586 69.4068 10.1107 70.2575 10.8203C71.2104 11.6226 71.6883 12.7697 71.6883 14.2631ZM70.0733 14.3045C70.0733 13.2172 69.7781 12.3836 69.1876 11.8022C68.5971 11.2222 67.7348 10.9315 66.5992 10.9315C66.1169 10.9315 65.7062 10.9628 65.3657 11.0284V17.9952C65.5542 18.0237 65.8991 18.0365 66.4004 18.0365C67.5726 18.0365 68.4773 17.7188 69.1145 17.0832C69.7518 16.4477 70.0733 15.5214 70.0733 14.3045Z" fill="white"/>
<path id="o" d="M80.2516 15.728C80.2516 16.7612 79.949 17.6076 79.344 18.2717C78.7097 18.9542 77.8693 19.2948 76.8199 19.2948C75.8085 19.2948 75.0032 18.9685 74.4025 18.313C73.8033 17.6589 73.5037 16.8338 73.5037 15.8392C73.5037 14.7989 73.812 13.9454 74.4317 13.2827C75.0514 12.6201 75.8845 12.2881 76.9339 12.2881C77.9453 12.2881 78.7579 12.6144 79.3732 13.2685C79.9578 13.904 80.2516 14.7248 80.2516 15.728ZM78.6629 15.7765C78.6629 15.1566 78.5255 14.6251 78.2522 14.1819C77.9307 13.6461 77.4732 13.3782 76.8784 13.3782C76.2631 13.3782 75.7954 13.6461 75.4738 14.1819C75.199 14.6251 75.0631 15.1652 75.0631 15.8036C75.0631 16.4234 75.2005 16.955 75.4738 17.3981C75.8056 17.9339 76.2674 18.2018 76.8637 18.2018C77.4484 18.2018 77.9073 17.9297 78.2376 17.3839C78.5211 16.9322 78.6629 16.3964 78.6629 15.7765Z" fill="white"/>
<path id="w" d="M91.7335 12.4248L89.5778 19.1423H88.1747L87.2817 16.2253C87.0551 15.4971 86.871 14.7732 86.7278 14.055H86.7C86.567 14.7932 86.3828 15.5156 86.1461 16.2253L85.1975 19.1423H83.7784L81.7512 12.4248H83.3253L84.1043 15.6182C84.2928 16.3735 84.4478 17.0931 84.572 17.7743H84.5998C84.7138 17.2128 84.9023 16.4975 85.1683 15.6325L86.1461 12.4262H87.3942L88.3311 15.5641C88.5576 16.3293 88.7418 17.066 88.8835 17.7757H88.9259C89.0297 17.0846 89.1861 16.3478 89.3936 15.5641L90.2296 12.4262H91.7335V12.4248Z" fill="white"/>
<path id="n" d="M99.6741 19.1422H98.1424V15.2947C98.1424 14.1091 97.6805 13.5163 96.7539 13.5163C96.2994 13.5163 95.9325 13.6788 95.6475 14.0051C95.3655 14.3314 95.2222 14.7162 95.2222 15.1565V19.1408H93.6905V14.3442C93.6905 13.7543 93.6715 13.1145 93.635 12.4219H94.9811L95.0527 13.4721H95.0951C95.2734 13.1458 95.5394 12.8765 95.8887 12.6613C96.3038 12.4105 96.7685 12.2837 97.2772 12.2837C97.9202 12.2837 98.4551 12.486 98.8805 12.8922C99.4095 13.3895 99.6741 14.1319 99.6741 15.118V19.1422V19.1422Z" fill="white"/>
<path id="l" d="M103.898 19.142H102.367V9.34229H103.898V19.142Z" fill="white"/>
<path id="o_2" d="M112.916 15.728C112.916 16.7612 112.613 17.6076 112.008 18.2717C111.374 18.9542 110.532 19.2948 109.484 19.2948C108.471 19.2948 107.666 18.9685 107.067 18.313C106.467 17.6589 106.168 16.8338 106.168 15.8392C106.168 14.7989 106.476 13.9454 107.096 13.2827C107.715 12.6201 108.549 12.2881 109.596 12.2881C110.609 12.2881 111.42 12.6144 112.037 13.2685C112.622 13.904 112.916 14.7248 112.916 15.728ZM111.325 15.7765C111.325 15.1566 111.188 14.6251 110.915 14.1819C110.595 13.6461 110.136 13.3782 109.542 13.3782C108.926 13.3782 108.458 13.6461 108.138 14.1819C107.863 14.6251 107.727 15.1652 107.727 15.8036C107.727 16.4234 107.865 16.955 108.138 17.3981C108.47 17.9339 108.931 18.2018 109.528 18.2018C110.112 18.2018 110.57 17.9297 110.9 17.3839C111.185 16.9322 111.325 16.3964 111.325 15.7765Z" fill="white"/>
<path id="a" d="M120.329 19.1423H118.953L118.839 18.3686H118.797C118.326 18.9856 117.655 19.2948 116.784 19.2948C116.134 19.2948 115.608 19.091 115.212 18.6863C114.852 18.3187 114.672 17.8613 114.672 17.3183C114.672 16.4975 115.023 15.872 115.729 15.4388C116.434 15.0056 117.424 14.7932 118.7 14.8032V14.6778C118.7 13.7929 118.224 13.3511 117.27 13.3511C116.59 13.3511 115.991 13.5179 115.473 13.8485L115.162 12.8681C115.802 12.4819 116.593 12.2881 117.525 12.2881C119.326 12.2881 120.229 13.2143 120.229 15.0668V17.5406C120.229 18.2118 120.263 18.7462 120.329 19.1423ZM118.738 16.8338V15.7979C117.049 15.7694 116.204 16.2211 116.204 17.1516C116.204 17.5022 116.301 17.7644 116.498 17.9396C116.695 18.1149 116.947 18.2018 117.246 18.2018C117.582 18.2018 117.897 18.0978 118.183 17.8912C118.471 17.6831 118.648 17.4195 118.714 17.096C118.73 17.0234 118.738 16.935 118.738 16.8338Z" fill="white"/>
<path id="d" d="M129.032 19.142H127.673L127.601 18.0633H127.559C127.125 18.8841 126.385 19.2945 125.346 19.2945C124.516 19.2945 123.825 18.9767 123.276 18.3412C122.728 17.7056 122.455 16.8805 122.455 15.8674C122.455 14.7801 122.752 13.8994 123.348 13.2268C123.925 12.5998 124.633 12.2863 125.475 12.2863C126.4 12.2863 127.047 12.5899 127.416 13.1983H127.445V9.34229H128.978V17.3323C128.978 17.9863 128.995 18.5891 129.032 19.142ZM127.445 16.3091V15.1891C127.445 14.9953 127.43 14.8385 127.402 14.7188C127.316 14.3597 127.131 14.0576 126.848 13.8139C126.563 13.5703 126.22 13.4477 125.824 13.4477C125.252 13.4477 124.805 13.6686 124.476 14.1118C124.15 14.5549 123.985 15.1207 123.985 15.8118C123.985 16.4758 124.142 17.0145 124.456 17.4292C124.788 17.8709 125.235 18.0918 125.795 18.0918C126.297 18.0918 126.699 17.908 127.005 17.5389C127.3 17.1983 127.445 16.7879 127.445 16.3091Z" fill="white"/>
<path id="o_3" d="M142.132 15.728C142.132 16.7612 141.829 17.6076 141.224 18.2717C140.59 18.9542 139.751 19.2948 138.7 19.2948C137.69 19.2948 136.885 18.9685 136.283 18.313C135.683 17.6589 135.384 16.8338 135.384 15.8392C135.384 14.7989 135.692 13.9454 136.312 13.2827C136.932 12.6201 137.765 12.2881 138.815 12.2881C139.825 12.2881 140.639 12.6144 141.253 13.2685C141.838 13.904 142.132 14.7248 142.132 15.728ZM140.544 15.7765C140.544 15.1566 140.407 14.6251 140.134 14.1819C139.811 13.6461 139.355 13.3782 138.758 13.3782C138.145 13.3782 137.677 13.6461 137.354 14.1819C137.079 14.6251 136.943 15.1652 136.943 15.8036C136.943 16.4234 137.081 16.955 137.354 17.3981C137.686 17.9339 138.148 18.2018 138.744 18.2018C139.328 18.2018 139.789 17.9297 140.119 17.3839C140.401 16.9322 140.544 16.3964 140.544 15.7765Z" fill="white"/>
<path id="n_2" d="M150.367 19.1422H148.837V15.2947C148.837 14.1091 148.375 13.5163 147.447 13.5163C146.993 13.5163 146.626 13.6788 146.342 14.0051C146.059 14.3314 145.917 14.7162 145.917 15.1565V19.1408H144.384V14.3442C144.384 13.7543 144.366 13.1145 144.33 12.4219H145.674L145.746 13.4721H145.788C145.968 13.1458 146.234 12.8765 146.582 12.6613C146.998 12.4105 147.462 12.2837 147.972 12.2837C148.613 12.2837 149.148 12.486 149.574 12.8922C150.104 13.3895 150.367 14.1319 150.367 15.118V19.1422V19.1422Z" fill="white"/>
<path id="t" d="M160.676 13.5435H158.989V16.8068C158.989 17.6361 159.289 18.0508 159.882 18.0508C160.157 18.0508 160.385 18.028 160.565 17.981L160.604 19.1139C160.302 19.225 159.904 19.2806 159.414 19.2806C158.809 19.2806 158.339 19.101 157.998 18.7419C157.656 18.3828 157.487 17.7786 157.487 16.9308V13.5435H156.48V12.4249H157.487V11.1937L158.988 10.752V12.4235H160.674V13.5435H160.676Z" fill="white"/>
<path id="h" d="M168.784 19.142H167.251V15.323C167.251 14.1189 166.789 13.5161 165.864 13.5161C165.154 13.5161 164.669 13.8652 164.403 14.5635C164.357 14.7103 164.331 14.8898 164.331 15.1007V19.1406H162.801V9.34229H164.331V13.3907H164.36C164.843 12.654 165.534 12.2863 166.43 12.2863C167.064 12.2863 167.589 12.4887 168.005 12.8948C168.524 13.4007 168.784 14.1531 168.784 15.1477V19.142V19.142Z" fill="white"/>
<path id="e" d="M177.148 15.4655C177.148 15.7334 177.128 15.9585 177.091 16.1424H172.498C172.518 16.8064 172.738 17.3123 173.163 17.6628C173.552 17.9763 174.053 18.1331 174.667 18.1331C175.346 18.1331 175.966 18.0276 176.524 17.8153L176.764 18.8527C176.111 19.1292 175.342 19.2674 174.452 19.2674C173.385 19.2674 172.545 18.961 171.937 18.3483C171.326 17.7355 171.023 16.9133 171.023 15.8816C171.023 14.8684 171.305 14.0248 171.874 13.3522C172.467 12.634 173.27 12.2749 174.282 12.2749C175.273 12.2749 176.026 12.634 176.535 13.3522C176.945 13.9222 177.148 14.6276 177.148 15.4655ZM175.687 15.0793C175.699 14.6361 175.598 14.2542 175.39 13.9322C175.124 13.5175 174.719 13.3095 174.171 13.3095C173.671 13.3095 173.264 13.5118 172.952 13.9179C172.698 14.2414 172.548 14.6276 172.498 15.0793H175.687Z" fill="white"/>
</g>
<g id="App Store">
<path id="A" d="M78.4043 44.8931H75.0851L73.267 39.3228H66.9473L65.2153 44.8931H61.9839L68.2451 25.9292H72.1123L78.4043 44.8931ZM72.7189 36.9858L71.0747 32.0339C70.9007 31.528 70.5748 30.3367 70.094 28.4614H70.0355C69.844 29.268 69.5357 30.4593 69.1118 32.0339L67.4968 36.9858H72.7189V36.9858Z" fill="white"/>
<path id="p" d="M94.5058 37.8882C94.5058 40.2138 93.8613 42.0521 92.5722 43.4015C91.4176 44.6028 89.9838 45.2027 88.2724 45.2027C86.425 45.2027 85.0979 44.5558 84.2897 43.2619H84.2312V50.4653H81.1152V35.7208C81.1152 34.2587 81.0758 32.7582 80.9998 31.2192H83.7401L83.9141 33.3866H83.9725C85.0117 31.7536 86.5887 30.9385 88.705 30.9385C90.3594 30.9385 91.7406 31.5755 92.8455 32.8508C93.9534 34.1276 94.5058 35.8063 94.5058 37.8882ZM91.3314 37.9994C91.3314 36.6684 91.0244 35.5712 90.4077 34.7076C89.7339 33.807 88.8292 33.3567 87.6951 33.3567C86.9263 33.3567 86.2277 33.6075 85.6036 34.102C84.9781 34.6007 84.5688 35.252 84.3774 36.0585C84.2809 36.4347 84.2327 36.7425 84.2327 36.9848V39.2648C84.2327 40.2594 84.5454 41.0987 85.171 41.7842C85.7965 42.4696 86.6091 42.8116 87.6088 42.8116C88.7824 42.8116 89.6959 42.3698 90.3492 41.4892C91.004 40.6071 91.3314 39.4443 91.3314 37.9994Z" fill="white"/>
<path id="p_2" d="M110.637 37.8882C110.637 40.2138 109.993 42.0521 108.702 43.4015C107.549 44.6028 106.115 45.2027 104.404 45.2027C102.556 45.2027 101.229 44.5558 100.422 43.2619H100.364V50.4653H97.248V35.7208C97.248 34.2587 97.2086 32.7582 97.1326 31.2192H99.873L100.047 33.3866H100.105C101.143 31.7536 102.72 30.9385 104.838 30.9385C106.491 30.9385 107.872 31.5755 108.98 32.8508C110.083 34.1276 110.637 35.8063 110.637 37.8882ZM107.463 37.9994C107.463 36.6684 107.154 35.5712 106.538 34.7076C105.864 33.807 104.962 33.3567 103.826 33.3567C103.056 33.3567 102.359 33.6075 101.733 34.102C101.108 34.6007 100.7 35.252 100.509 36.0585C100.414 36.4347 100.364 36.7425 100.364 36.9848V39.2648C100.364 40.2594 100.677 41.0987 101.299 41.7842C101.925 42.4682 102.738 42.8116 103.74 42.8116C104.914 42.8116 105.827 42.3698 106.481 41.4892C107.135 40.6071 107.463 39.4443 107.463 37.9994Z" fill="white"/>
<path id="S" d="M128.672 39.575C128.672 41.1881 128.098 42.5006 126.945 43.5137C125.677 44.621 123.913 45.1739 121.647 45.1739C119.554 45.1739 117.876 44.7806 116.606 43.9925L117.328 41.4603C118.696 42.2669 120.197 42.6716 121.832 42.6716C123.006 42.6716 123.919 42.4122 124.575 41.8964C125.229 41.3805 125.555 40.688 125.555 39.8244C125.555 39.0549 125.286 38.4065 124.746 37.8807C124.21 37.3549 123.314 36.8661 122.063 36.4144C118.658 35.1761 116.956 33.362 116.956 30.9766C116.956 29.4176 117.553 28.1394 118.747 27.1448C119.937 26.1487 121.524 25.6514 123.509 25.6514C125.278 25.6514 126.749 25.952 127.922 26.552L127.143 29.0286C126.047 28.4472 124.808 28.1565 123.421 28.1565C122.325 28.1565 121.468 28.4201 120.854 28.9445C120.336 29.4134 120.075 29.9848 120.075 30.6617C120.075 31.4112 120.372 32.0311 120.968 32.5184C121.487 32.9687 122.43 33.4561 123.798 33.9819C125.471 34.6388 126.701 35.4069 127.491 36.2876C128.279 37.1654 128.672 38.264 128.672 39.575Z" fill="white"/>
<path id="t_2" d="M138.975 33.4987H135.54V40.1378C135.54 41.8264 136.145 42.67 137.358 42.67C137.915 42.67 138.377 42.623 138.742 42.5289L138.829 44.836C138.215 45.0597 137.407 45.1723 136.405 45.1723C135.175 45.1723 134.213 44.8061 133.519 44.075C132.828 43.3426 132.48 42.1142 132.48 40.3886V33.4958H130.434V31.2158H132.48V28.7121L135.54 27.8115V31.2158H138.975V33.4987Z" fill="white"/>
<path id="o_4" d="M154.471 37.9433C154.471 40.0452 153.855 41.7709 152.624 43.1204C151.333 44.5097 149.621 45.2023 147.485 45.2023C145.427 45.2023 143.789 44.5368 142.567 43.2059C141.345 41.8749 140.734 40.1948 140.734 38.1699C140.734 36.0509 141.363 34.3153 142.624 32.9658C143.883 31.6149 145.581 30.9395 147.716 30.9395C149.774 30.9395 151.43 31.6049 152.68 32.9373C153.875 34.2298 154.471 35.8985 154.471 37.9433ZM151.238 38.0417C151.238 36.7805 150.962 35.699 150.402 34.7969C149.749 33.7054 148.815 33.161 147.605 33.161C146.353 33.161 145.401 33.7068 144.748 34.7969C144.188 35.7004 143.912 36.7991 143.912 38.0987C143.912 39.3598 144.188 40.4414 144.748 41.342C145.422 42.4335 146.363 42.9779 147.577 42.9779C148.767 42.9779 149.701 42.4221 150.375 41.3135C150.949 40.3943 151.238 39.3014 151.238 38.0417Z" fill="white"/>
<path id="r" d="M164.6 33.8911C164.291 33.8355 163.963 33.807 163.618 33.807C162.521 33.807 161.674 34.2103 161.077 35.0183C160.559 35.7308 160.298 36.6314 160.298 37.7186V44.8935H157.184L157.213 35.5256C157.213 33.9495 157.174 32.5145 157.096 31.2206H159.81L159.924 33.8369H160.011C160.339 32.9378 160.858 32.2139 161.569 31.6709C162.263 31.1822 163.013 30.9385 163.821 30.9385C164.109 30.9385 164.369 30.9584 164.6 30.9941V33.8911Z" fill="white"/>
<path id="e_2" d="M178.536 37.4092C178.536 37.9535 178.499 38.4124 178.422 38.7871H169.074C169.11 40.138 169.562 41.1712 170.43 41.8837C171.218 42.5206 172.236 42.8398 173.487 42.8398C174.871 42.8398 176.134 42.6247 177.27 42.1929L177.758 44.3019C176.431 44.8662 174.864 45.1469 173.056 45.1469C170.881 45.1469 169.174 44.5228 167.932 43.2759C166.693 42.029 166.072 40.3546 166.072 38.2542C166.072 36.1922 166.649 34.4751 167.805 33.1057C169.015 31.6436 170.651 30.9126 172.708 30.9126C174.73 30.9126 176.26 31.6436 177.299 33.1057C178.122 34.267 178.536 35.7034 178.536 37.4092ZM175.564 36.6211C175.585 35.7205 175.382 34.9425 174.959 34.2856C174.42 33.4405 173.591 33.0187 172.476 33.0187C171.457 33.0187 170.629 33.4306 169.996 34.2571C169.477 34.914 169.169 35.702 169.074 36.6197H175.564V36.6211Z" fill="white"/>
</g>
</g>
<defs>
<linearGradient id="paint0_linear_1672_159" x1="-61.2953" y1="77.6088" x2="-40.0321" y2="-29.7283" gradientUnits="userSpaceOnUse">
<stop stop-color="#0D0D0F"/>
</linearGradient>
</defs>
</svg>
