<svg width="30" height="21" viewBox="0 0 30 21" fill="none" xmlns="http://www.w3.org/2000/svg">
<path id="Vector 122" d="M1.31592 19.7451V15.7451M1.31592 1.24512C1.31592 1.24512 1.31592 3.68302 1.31592 5.24512M1.31592 5.24512C2.68275 4.46407 3.42208 3.97688 4.81592 3.24512C5.58908 2.83921 6.81592 2.24512 6.81592 2.24512C6.81592 2.24512 12.9875 3.20755 13.8159 6.24512C14.1242 7.37541 13.8159 9.24512 13.8159 9.24512C13.8159 9.24512 12.2239 10.1537 11.3159 9.74512M1.31592 5.24512C1.31592 9.34562 1.31592 15.7451 1.31592 15.7451M11.3159 9.74512C9.55856 9.15933 6.81592 8.24512 6.81592 8.24512M11.3159 9.74512C12.2922 10.5262 12.6194 11.3825 13.8159 11.7451C14.7503 12.0283 15.3586 11.9366 16.3159 11.7451C17.8596 11.4364 18.4635 10.5509 19.8159 9.74512C22.0031 8.44202 25.3159 6.24512 25.3159 6.24512C25.3159 6.24512 27.4875 5.41669 28.3159 6.24512C29.1443 7.07354 28.3159 9.24512 28.3159 9.24512C28.3159 9.24512 24.0239 12.8723 21.3159 15.2451C19.5475 16.7947 19.0224 18.4329 16.8159 19.2451C15.8816 19.589 15.3094 19.6798 14.3159 19.7451C10.6552 19.9856 5.81592 15.7451 5.81592 15.7451H1.31592" stroke="#131134" stroke-width="2.5"/>
</svg>
