<svg width="36" height="36" viewBox="0 0 36 36" fill="none" xmlns="http://www.w3.org/2000/svg">
<g id="Icon">
<path id="Combined Shape" fill-rule="evenodd" clip-rule="evenodd" d="M35.6226 22.2396C35.3938 22.1487 35.1326 22.2056 34.9626 22.3835L32.4001 25.0769V9.07899H32.4031L34.8481 6.43917C35.073 6.19611 35.0582 5.81629 34.8148 5.59136L34.8143 5.59081L33.9343 4.77184L35.1571 3.45193C35.3817 3.2086 35.3666 2.82905 35.1233 2.6044L32.4833 0.15957C32.2402 -0.0653584 31.8606 -0.0508025 31.6357 0.192527L27.3697 4.79848H6.60004C6.59811 3.14241 5.25613 1.80053 3.59995 1.79861H3.00009C1.3439 1.80053 0.00192261 3.14241 0 4.79848V30.5966C0 30.9278 0.268616 31.1964 0.600128 31.1964H9.6828L8.42267 32.7094C8.21091 32.9642 8.24551 33.3424 8.50012 33.5542L11.2668 35.8576C11.5214 36.0696 11.8998 36.035 12.1119 35.7804L12.1122 35.7801L15.1831 32.0909C15.3951 31.8355 15.5316 31.5254 15.5767 31.1964H26.571L22.965 34.9828C22.7368 35.2229 22.7464 35.6027 22.9864 35.8309C23.0979 35.9369 23.246 35.9962 23.4001 35.996H35.3999C35.7314 35.996 36 35.7274 36 35.3962V22.7971C36 22.5516 35.8506 22.3308 35.6226 22.2396ZM33.5599 6.05823L32.4001 7.31278V6.43037L33.1199 5.6504L33.5599 6.05823ZM31.2001 5.95991V5.9514H31.2072L32.2386 4.83802L30.4763 3.20777L24.3636 9.81336L26.1258 11.4436L31.2001 5.95991ZM24.9733 12.011L23.5931 12.4136L23.8878 11.0061L24.9733 12.011ZM33.8681 3.07594L32.1067 1.44652L31.2913 2.32728L33.0529 3.95835L33.8681 3.07594ZM3.00009 2.99849H3.59995C4.59421 2.99849 5.40005 3.80428 5.40005 4.79847V27.6124C4.8837 27.2152 4.25116 26.9988 3.59995 26.9966H3.00009C2.3486 26.9988 1.71634 27.2152 1.19998 27.6124V4.79847C1.19998 3.80428 2.00583 2.99849 3.00009 2.99849ZM3.59995 28.1965H3.00009C2.00583 28.1965 1.19998 29.0026 1.19998 29.9965H5.40005C5.40005 29.0026 4.59421 28.1965 3.59995 28.1965ZM14.2614 31.3235L13.8774 31.7844L12.0331 30.2492L12.4165 29.7878C12.6285 29.5332 13.0067 29.4986 13.2613 29.7106L13.2616 29.7107L13.2619 29.7109L14.1839 30.4766C14.4388 30.6883 14.4737 31.0665 14.2619 31.3213L14.2614 31.3219V31.3235ZM9.72949 33.0161L11.5741 34.5514L13.1094 32.7066L11.2651 31.1711L9.72949 33.0161ZM15.3246 29.9965C15.2249 29.8303 15.0988 29.6818 14.9513 29.5562L14.0293 28.7889C13.2652 28.1528 12.1303 28.2564 11.4942 29.0204L10.6801 29.9965H6.60004V5.99836H26.2595L23.0754 9.43903C23.0298 9.49038 22.9936 9.54971 22.9686 9.6137C22.9614 9.631 22.9559 9.6472 22.9499 9.66533C22.9477 9.6722 22.945 9.6791 22.9422 9.6861C22.9378 9.69729 22.9334 9.7087 22.9307 9.72053L22.2144 13.145C22.1468 13.4693 22.355 13.7871 22.6794 13.8547C22.7758 13.8747 22.8755 13.8709 22.9697 13.8434L26.3298 12.8643C26.3382 12.8617 26.3459 12.8579 26.3534 12.8541C26.36 12.8508 26.3666 12.8475 26.3735 12.8451C26.3886 12.8396 26.4043 12.8319 26.4205 12.8239C26.4878 12.7935 26.5487 12.7503 26.6004 12.6973L31.2001 7.72666V26.3367L27.7141 29.9965H15.3246ZM24.7997 34.7961H34.8V24.2969L24.7997 34.7961ZM28.8001 33.5962C28.5573 33.5962 28.3384 33.4501 28.2456 33.226C28.1527 33.0019 28.2041 32.7437 28.3758 32.572L32.5758 28.3726C32.6882 28.26 32.8409 28.1968 32.9999 28.1968C33.3311 28.1968 33.6 28.4651 33.6 28.7966V32.9964C33.6 33.3276 33.3314 33.5962 32.9999 33.5962H28.8001ZM32.4001 32.3963V30.2448L30.2484 32.3963H32.4001ZM22.2001 22.7971H26.3999C26.7314 22.7971 27 23.0657 27 23.3969C27 23.7284 26.7314 23.997 26.4001 23.997H9.60013C9.26862 23.997 9 23.7284 9 23.3969C9 23.0657 9.26862 22.7971 9.60013 22.7971H13.7999V16.1976C13.8005 16.0386 13.8634 15.8859 13.9752 15.7727L17.5751 12.173C17.8094 11.9388 18.1892 11.9388 18.4235 12.173L22.0235 15.7727C22.1358 15.8856 22.1992 16.0383 22.2001 16.1976V22.7971ZM20.1517 15.5975L18 13.446L15.8483 15.5975H20.1517ZM21.0001 16.7974V22.7971H14.9999V16.7974H21.0001ZM17.3999 9.59804H18.6001V10.7979H17.3999V9.59804ZM18.6001 26.3968V25.1969H17.3999V26.3968H18.6001Z" fill="black"/>
</g>
</svg>
