<svg width="60" height="41" viewBox="0 0 60 41" fill="none" xmlns="http://www.w3.org/2000/svg">
<g id="material-symbols-light:upload">
<path id="Vector" d="M28.5826 26.6107V11.8336L22.9048 15.8141L21.1795 14.5858L29.801 8.54169L38.4226 14.5858L36.6997 15.8158L31.0195 11.8336V26.6107H28.5826ZM16.6787 32.4584C15.5577 32.4584 14.622 32.1953 13.8714 31.6691C13.1192 31.1418 12.7432 30.4852 12.7432 29.6994V25.5601H15.18V29.6994C15.18 29.9613 15.336 30.2022 15.6479 30.422C15.9614 30.6407 16.305 30.75 16.6787 30.75H42.9234C43.2971 30.75 43.6407 30.6407 43.9542 30.422C44.2661 30.2022 44.4221 29.9613 44.4221 29.6994V25.5601H46.8589V29.6994C46.8589 30.4852 46.4836 31.1412 45.7331 31.6674C44.9809 32.1947 44.0444 32.4584 42.9234 32.4584H16.6787Z" fill="black"/>
</g>
</svg>
