<svg width="45" height="46" viewBox="0 0 45 46" fill="none" xmlns="http://www.w3.org/2000/svg">
<g id="60e4a1e73807561d83e7fbc5_icon-about-drive-3-crypto-template.svg" clip-path="url(#clip0_1352_1188)">
<path id="Vector" d="M19.2599 39.8023C29.7081 39.8023 38.1782 31.2791 38.1782 20.7652C38.1782 10.2513 29.7081 1.72809 19.2599 1.72809C8.81156 1.72809 0.341553 10.2513 0.341553 20.7652C0.341553 31.2791 8.81156 39.8023 19.2599 39.8023Z" fill="white"/>
<path id="Vector_2" opacity="0.4" d="M41.4258 45.6296C40.6909 45.6058 39.9921 45.3035 39.4694 44.7831L34.9893 39.5464C34.0288 38.668 33.9502 37.1752 34.8132 36.1996C35.2171 35.7909 35.7663 35.5611 36.3392 35.5611C36.912 35.5611 37.4612 35.7909 37.8652 36.1996L43.4996 40.7079C44.3112 41.5386 44.5616 42.7718 44.139 43.8563C43.7163 44.9408 42.6996 45.674 41.5432 45.7281L41.4258 45.6296Z" fill="white"/>
</g>
<defs>
<clipPath id="clip0_1352_1188">
<rect width="45" height="45" fill="white" transform="translate(0 0.984375)"/>
</clipPath>
</defs>
</svg>
