<svg width="52" height="53" viewBox="0 0 52 53" fill="none" xmlns="http://www.w3.org/2000/svg">
<g id="60e4a1e7380756dbbae7fbc6_icon-about-drive-2-crypto-template.svg" clip-path="url(#clip0_1352_1168)">
<path id="Vector" d="M51.4875 26.7281C51.4875 40.9574 39.973 52.4719 25.7437 52.4719C11.5145 52.4719 0 40.9574 0 26.7281C0 12.4989 11.5145 0.984375 25.7437 0.984375C28.7862 0.984375 31.735 1.49925 34.4498 2.4822C44.3728 6.03951 51.4875 15.5413 51.4875 26.7281Z" fill="white" fill-opacity="0.4"/>
<path id="Vector_2" d="M50.9728 21.5327C49.1474 12.6863 42.7817 5.47799 34.45 2.48236C34.4032 2.48236 34.3564 2.43555 34.3564 2.43555L34.45 7.39707C34.45 8.66085 33.7011 9.83102 32.531 10.3459C29.9566 11.4693 27.3822 10.8608 26.3057 13.8096C25.4163 16.0095 27.7567 22.0476 30.6119 22.0476C34.216 22.0476 35.9479 14.7926 37.0244 14.7926C37.7265 14.7926 38.8031 16.9925 40.0669 18.6307C40.9094 19.7541 42.22 20.3626 43.6242 20.3626H46.0113L50.9728 21.5327Z" fill="white"/>
<path id="Vector_3" d="M30.331 32.3448C29.0204 34.1702 35.901 39.7402 38.1945 38.6637C42.0795 36.8382 44.607 33.0469 44.607 31.6427C44.607 30.2384 42.7816 27.5237 36.5563 31.7363C34.8244 33 31.6884 30.4725 30.331 32.3448Z" fill="white"/>
<path id="Vector_4" d="M19.8929 27.243C21.2503 25.8856 21.6715 23.7793 20.9694 22.5623C18.7227 18.4901 13.3867 20.6433 12.8719 24.9027C12.591 27.4771 11.0464 30.0982 9.73581 31.4556C8.42522 32.7662 5.85085 32.0641 5.14875 30.145C4.35303 27.9919 7.11463 27.1962 6.69337 24.4346C6.59976 23.6857 5.80404 23.3112 4.8211 23.1708L0.187227 23.3581C0.0936134 24.4346 0 25.558 0 26.7281C0 39.0383 8.61245 49.3358 20.1737 51.8634V47.2763C20.1737 47.2763 20.1737 47.2763 19.0036 46.1062C17.8334 44.936 20.2205 42.9701 20.8758 40.4893C22.7013 33.4683 16.6164 33.1875 16.4292 31.6429C16.242 29.911 18.5355 28.6004 19.8929 27.243Z" fill="white"/>
</g>
<defs>
<clipPath id="clip0_1352_1168">
<rect width="52" height="52" fill="white" transform="translate(0 0.984375)"/>
</clipPath>
</defs>
</svg>
